<svg xmlns="http://www.w3.org/2000/svg" xmlns:svg="http://www.w3.org/2000/svg" xmlns:xlink="http://www.w3.org/1999/xlink" id="svg8" width="378.347" height="556.881" version="1.1" viewBox="0 0 100.104 147.341"><defs id="defs2"><linearGradient id="linearGradient4767"><stop id="stop4763" offset="0" style="stop-color:#6d4b9e;stop-opacity:1"/><stop id="stop4765" offset="1" style="stop-color:#6b40a0;stop-opacity:1"/></linearGradient><linearGradient id="linearGradient4735"><stop style="stop-color:#875ec5;stop-opacity:1" id="stop4731" offset="0"/><stop style="stop-color:#6b40a0;stop-opacity:1" id="stop4733" offset="1"/></linearGradient><linearGradient id="linearGradient4737" x1="120.385" x2="124.354" y1="45.835" y2="104.61" gradientUnits="userSpaceOnUse" xlink:href="#linearGradient4735"/><linearGradient id="linearGradient4737-6" x1="120.385" x2="124.354" y1="45.835" y2="104.61" gradientTransform="rotate(2.8454027,-46.209002,-150.29194)" gradientUnits="userSpaceOnUse" xlink:href="#linearGradient4767"/></defs><metadata id="metadata5"/><g id="layer1" transform="translate(-68.980655,-44.959269)"><path style="fill:url(#linearGradient4737-6);fill-opacity:1;stroke:none;stroke-width:.26458332px;stroke-linecap:butt;stroke-linejoin:miter;stroke-opacity:1" id="path4531-1-2" d="m 88.034345,111.79925 c 0,0 4.678005,-60.54257 22.735795,-58.787719 14.08166,1.368454 17.12173,64.145629 15.76429,65.264379 -2.29686,1.89298 -2.41966,-1.52851 -2.41966,-1.52851 0,0 -1.93443,-59.184276 -13.52553,-59.877314 -15.437759,-0.923031 -19.668306,55.904554 -19.806237,56.952074 -0.13797,1.04752 -3.010157,3.23836 -2.748658,-2.02291 z"/><path style="fill:#aa87de;stroke:none;stroke-width:.26458332px;stroke-linecap:butt;stroke-linejoin:miter;stroke-opacity:1" id="path4485" d="m 84.28869,83.443452 c -0.944941,0.188986 68.23027,5.089246 68.23027,5.089246 l 16.56609,96.345942 -88.76511,7.42195 z"/><ellipse style="opacity:1;fill:#ffb380;fill-opacity:1;stroke:none;stroke-width:4.80000019;stroke-linecap:round;stroke-linejoin:round;stroke-miterlimit:4;stroke-dasharray:none;stroke-opacity:1" id="path4499-6" cx="102.54" cy="106.866" rx="2.538" ry="2.393"/><ellipse style="opacity:1;fill:#8d5fd3;fill-opacity:1;stroke:none;stroke-width:4.80000019;stroke-linecap:round;stroke-linejoin:round;stroke-miterlimit:4;stroke-dasharray:none;stroke-opacity:1" id="path4499-3-6" cx="102.211" cy="107.714" rx="3.486" ry="3.199"/><ellipse style="opacity:1;fill:#fd5;fill-opacity:1;stroke:none;stroke-width:4.80000019;stroke-linecap:round;stroke-linejoin:round;stroke-miterlimit:4;stroke-dasharray:none;stroke-opacity:1" id="path4499-9" cx="102.54" cy="106.866" rx="3.424" ry="3.228"/><path style="fill:#8d5fd3;stroke:none;stroke-width:.26458332px;stroke-linecap:butt;stroke-linejoin:miter;stroke-opacity:1" id="path4493" d="m 84.28869,83.443452 -1.889882,3.590774 -5.291666,101.675594 3.212798,3.59077 c 0,0 3.96875,-108.857138 3.96875,-108.857138 z"/><path style="fill:#aa87de;stroke:none;stroke-width:.26458332px;stroke-linecap:butt;stroke-linejoin:miter;stroke-opacity:1" id="path4495" d="m 77.107142,188.70982 -8.126487,-2.26786 5.669642,-98.084817 7.748511,-1.322917 z"/><path style="fill:#aa87de;stroke:none;stroke-width:.26458332px;stroke-linecap:butt;stroke-linejoin:miter;stroke-opacity:1" id="path4497" d="m 80.31994,192.30059 c 0,0 -11.339285,-5.85863 -11.339285,-5.85863 l 8.126487,2.26786 z"/><ellipse style="opacity:1;fill:#1a1a1a;fill-opacity:1;stroke:none;stroke-width:4.80000019;stroke-linecap:round;stroke-linejoin:round;stroke-miterlimit:4;stroke-dasharray:none;stroke-opacity:1" id="path4499-35-2" cx="102.531" cy="106.871" rx="2.538" ry="2.393"/><ellipse style="opacity:1;fill:#ffb380;fill-opacity:1;stroke:none;stroke-width:4.80000019;stroke-linecap:round;stroke-linejoin:round;stroke-miterlimit:4;stroke-dasharray:none;stroke-opacity:1" id="path4499-6-7" cx="138.677" cy="108.783" rx="2.538" ry="2.393"/><ellipse style="opacity:1;fill:#8d5fd3;fill-opacity:1;stroke:none;stroke-width:4.80000019;stroke-linecap:round;stroke-linejoin:round;stroke-miterlimit:4;stroke-dasharray:none;stroke-opacity:1" id="path4499-3-6-0" cx="138.347" cy="109.632" rx="3.486" ry="3.199"/><ellipse style="opacity:1;fill:#fd5;fill-opacity:1;stroke:none;stroke-width:4.80000019;stroke-linecap:round;stroke-linejoin:round;stroke-miterlimit:4;stroke-dasharray:none;stroke-opacity:1" id="path4499-9-9" cx="138.677" cy="108.783" rx="3.424" ry="3.228"/><ellipse style="opacity:1;fill:#1a1a1a;fill-opacity:1;stroke:none;stroke-width:4.80000019;stroke-linecap:round;stroke-linejoin:round;stroke-miterlimit:4;stroke-dasharray:none;stroke-opacity:1" id="path4499-35-2-3" cx="138.668" cy="108.788" rx="2.538" ry="2.393"/><path style="fill:url(#linearGradient4737);fill-opacity:1;stroke:none;stroke-width:.26458332px;stroke-linecap:butt;stroke-linejoin:miter;stroke-opacity:1" id="path4531-1" d="m 100.87937,104.81212 c 0,0 1.66683,-60.700154 19.78946,-59.843876 14.13224,0.667735 20.2849,63.216606 18.98467,64.401356 -2.20006,2.00466 -2.49256,-1.40651 -2.49256,-1.40651 0,0 -4.87003,-59.015282 -16.48124,-59.132069 -15.46454,-0.155544 -16.86888,56.811989 -16.95464,57.865069 -0.0858,1.05308 -2.84569,3.38379 -2.84569,-1.88397 z"/></g></svg>